<?xml version="1.0" encoding="iso-8859-1"?>
<!-- Uploaded to: SVG Repo, www.svgrepo.com, Generator: SVG Repo Mixer Tools -->
<svg height="800px" width="800px" version="1.1" id="Layer_1" xmlns="http://www.w3.org/2000/svg" xmlns:xlink="http://www.w3.org/1999/xlink" 
	 viewBox="0 0 512 512" xml:space="preserve">
<path style="fill:#C8E6FF;" d="M413.242,293.077L260.247,191.691l-73.034,109.447c-34.137,53.362-24.944,135.011,7.069,155.489
	c32.024,20.478,118.324-6.187,152.45-59.549L413.242,293.077z"/>
<path style="fill:#58AB5B;" d="M468.848,189.076c34.126-53.362,14.051-113.227-17.962-133.704
	c-32.024-20.478-107.432,6.187-141.558,59.549l-60.514,93.902l146.891,93.936L468.848,189.076z"/>
<path style="fill:#ADD9FF;" d="M352.702,421.793l66.509-104.001l-16.58-59.224l-88.575,138.511
	c-34.126,53.362-87.749,80.027-119.773,59.549C247.656,490.753,318.576,475.155,352.702,421.793z"/>
<path style="fill:#E4F2FF;" d="M198.106,322.922l91.301-142.785l-63.449,14.07l-66.509,104.001
	c-34.126,53.362-18.528,124.293,34.834,158.419C162.27,436.149,163.969,376.284,198.106,322.922z"/>
<path style="fill:#559156;" d="M485.72,213.791c34.126-53.362,18.528-124.293-34.834-158.419
	c32.013,20.478,30.303,80.342-3.823,133.704l-66.498,104.001l38.646,24.715L485.72,213.791z"/>
<path style="fill:#84C688;" d="M331.113,114.921c34.126-53.362,87.749-80.027,119.773-59.549
	c-53.373-34.126-124.293-18.528-158.419,34.834l-66.509,104.001l38.646,24.715L331.113,114.921z"/>
<path style="fill:#FFDD77;" d="M280.074,218.921L127.079,320.307L54.045,210.86C19.909,157.498,29.102,75.849,61.115,55.371
	c32.024-20.478,118.324,6.187,152.45,59.549L280.074,218.921z"/>
<path style="fill:#FF455E;" d="M335.68,322.921c34.126,53.362,14.051,113.227-17.962,133.704
	c-32.024,20.478-107.432-6.187-141.558-59.549l-60.514-93.903l146.891-93.936L335.68,322.921z"/>
<path style="fill:#FFCC3D;" d="M219.534,90.205l66.509,104.001l-16.58,59.224l-88.575-138.51
	C146.762,61.558,93.138,34.893,61.115,55.371C114.487,21.245,185.408,36.843,219.534,90.205z"/>
<path style="fill:#F9F0B5;" d="M64.938,189.075l91.301,142.785l-63.449-14.07L26.281,213.79
	C-7.845,160.428,7.753,89.497,61.115,55.371C29.102,75.849,30.801,135.713,64.938,189.075z"/>
<path style="fill:#ED2F49;" d="M352.552,298.206c34.126,53.362,18.528,124.293-34.834,158.419
	c32.013-20.478,30.303-80.342-3.823-133.704L247.397,218.92l38.646-24.715L352.552,298.206z"/>
<path style="fill:#FE7074;" d="M197.945,397.077c34.126,53.362,87.749,80.027,119.773,59.549
	c-53.373,34.126-124.293,18.528-158.419-34.834L92.79,317.791l38.646-24.715L197.945,397.077z"/>
<g>
	<path style="fill:#1D2328;" d="M292.924,189.808c-0.001-0.001-0.001-0.002-0.001-0.002c0-0.001-0.001-0.002-0.001-0.002
		L226.417,85.808c-22.699-35.495-61.434-56.686-103.617-56.686c-23.418,0-46.27,6.698-66.085,19.37
		C29.066,66.171,9.958,93.561,2.91,125.613c-7.048,32.053-1.193,64.932,16.489,92.58L85.903,322.19c0,0.001,0.001,0.002,0.001,0.002
		c0,0.001,0.001,0.001,0.001,0.002l66.505,103.997c22.699,35.494,61.433,56.685,103.617,56.686c0.001,0,0.001,0,0.002,0
		c23.415,0,46.269-6.698,66.083-19.37c27.648-17.681,46.756-45.07,53.804-77.123s1.193-64.932-16.489-92.58L292.924,189.808z
		 M18.867,129.122c6.111-27.791,22.678-51.537,46.65-66.867c17.182-10.987,36.99-16.795,57.282-16.795
		c36.582,0,70.172,18.373,89.853,49.15l62.105,97.117L95.269,306.507l-62.105-97.117C17.834,185.419,12.757,156.912,18.867,129.122z
		 M359.961,382.876c-6.111,27.791-22.678,51.537-46.65,66.867c-17.182,10.988-36.99,16.796-57.282,16.795
		c-36.582-0.001-70.172-18.374-89.853-49.149l-62.105-97.117l179.488-114.782l62.105,97.117
		C360.993,326.58,366.07,355.087,359.961,382.876z"/>
	<path style="fill:#1D2328;" d="M95.832,277.061c1.56,2.438,4.197,3.77,6.889,3.77c1.506,0,3.03-0.416,4.394-1.289
		c3.8-2.43,4.911-7.482,2.48-11.283l-48.903-76.473c-10.628-16.619-14.147-36.381-9.911-55.646
		c4.236-19.267,15.721-35.728,32.338-46.356c3.8-2.43,4.911-7.483,2.48-11.283c-2.431-3.801-7.482-4.912-11.283-2.481
		c-20.295,12.978-34.32,33.084-39.494,56.611c-5.173,23.528-0.875,47.662,12.104,67.957L95.832,277.061z"/>
	<path style="fill:#1D2328;" d="M256.032,433.862c-25.382,0-48.68-12.74-62.326-34.077l-48.904-76.473
		c-2.431-3.801-7.482-4.911-11.283-2.481c-3.8,2.431-4.911,7.482-2.48,11.283l48.904,76.473
		c16.662,26.057,45.108,41.613,76.09,41.613c4.512,0,8.169-3.658,8.169-8.169C264.201,437.519,260.545,433.862,256.032,433.862z"/>
	<path style="fill:#1D2328;" d="M320.615,308.93c-3.8,2.43-4.911,7.483-2.48,11.283c10.628,16.619,14.147,36.381,9.911,55.645
		c-0.969,4.407,1.818,8.764,6.225,9.733c0.59,0.13,1.181,0.192,1.761,0.192c3.752,0,7.132-2.601,7.971-6.417
		c5.173-23.528,0.875-47.662-12.104-67.957C329.469,307.609,324.417,306.499,320.615,308.93z"/>
	<path style="fill:#1D2328;" d="M509.09,125.613c-7.048-32.052-26.156-59.442-53.803-77.123
		c-57.075-36.497-133.202-19.76-169.703,37.316l-17.073,26.697c-2.43,3.8-1.32,8.853,2.48,11.283
		c3.801,2.43,8.854,1.32,11.283-2.481l17.073-26.697c31.646-49.484,97.65-63.998,147.135-32.354
		c23.972,15.33,40.539,39.077,46.65,66.867c6.11,27.79,1.033,56.296-14.296,80.268l-62.105,97.117l-22.108-14.138
		c-3.803-2.43-8.854-1.32-11.283,2.481c-2.431,3.8-1.32,8.852,2.48,11.283l22.109,14.138l-12.322,19.268
		c-2.43,3.8-1.32,8.852,2.48,11.283c1.364,0.871,2.888,1.289,4.394,1.289c2.694,0,5.332-1.331,6.889-3.769l16.72-26.145
		c0.001-0.001,0.002-0.002,0.003-0.004c0.001-0.002,0.002-0.004,0.003-0.005L492.6,218.194
		C510.283,190.545,516.138,157.666,509.09,125.613z"/>
	<path style="fill:#1D2328;" d="M319.988,115.983c2.694,0,5.331-1.331,6.889-3.77c13.632-21.314,36.938-34.04,62.346-34.04
		c14.064,0,27.777,4.015,39.656,11.611c3.799,2.43,8.853,1.32,11.282-2.481c2.43-3.801,1.32-8.853-2.481-11.283
		c-14.511-9.279-31.268-14.185-48.457-14.185c-31.01,0-59.462,15.542-76.111,41.576c-2.43,3.8-1.32,8.852,2.48,11.283
		C316.958,115.567,318.482,115.983,319.988,115.983z"/>
</g>
</svg>