<?xml version="1.0" encoding="iso-8859-1"?>
<!-- Uploaded to: SVG Repo, www.svgrepo.com, Generator: SVG Repo Mixer Tools -->
<svg version="1.1" id="Layer_1" xmlns="http://www.w3.org/2000/svg" xmlns:xlink="http://www.w3.org/1999/xlink" 
	 viewBox="0 0 512 512" xml:space="preserve">
<rect x="171.045" y="407.638" style="fill:#AA8B65;" width="168.32" height="96.775"/>
<path style="fill:#3EAC92;" d="M310.463,291.076c10.558-27.758,18.419-59.957,18.419-94.291c0-104.486-72.81-189.189-72.81-189.189
	s-72.81,84.703-72.81,189.189c0,34.494,7.935,66.834,18.568,94.68v112.945l53.746,25.533l58.245-29.42L310.463,291.076z"/>
<g>
	<path style="fill:#7CD8A4;" d="M182.575,269.265c65.987,65.987,73.497,165.462,73.497,165.462s-99.475-7.51-165.462-73.497
		S17.113,195.768,17.113,195.768S116.588,203.278,182.575,269.265z"/>
	<path style="fill:#7CD8A4;" d="M421.391,361.23c-65.987,65.987-165.462,73.497-165.462,73.497s7.51-99.475,73.497-165.462
		s165.462-73.497,165.462-73.497S487.377,295.243,421.391,361.23z"/>
	<path style="fill:#7CD8A4;" d="M403.54,202.979c-27.835,40.37-78.532,53.699-78.532,53.699s-5.566-52.123,22.27-92.492
		s78.532-53.699,78.532-53.699S431.375,162.61,403.54,202.979z"/>
	<path style="fill:#7CD8A4;" d="M104.275,198.683c27.835,40.37,78.532,53.699,78.532,53.699s5.566-52.123-22.27-92.492
		s-78.532-53.699-78.532-53.699S76.439,158.313,104.275,198.683z"/>
</g>
<g style="opacity:0.21;">
	<path style="fill:#266659;" d="M396.639,223.17c18.242-37.348,13.894-78.106,13.894-78.106s-36.74,9.664-64.839,37.445
		c-12.273,86.542-46.805,198.426-141.607,241.986c16.703,4.763,30.889,7.392,40.199,8.786l5.725,5.725
		c0.225,0.31,0.469,0.612,0.748,0.891c1.428,1.427,3.3,2.141,5.17,2.141c0.023,0,0.048-0.003,0.071-0.003s0.048,0.003,0.071,0.003
		c1.872,0,3.743-0.714,5.17-2.141c0.28-0.28,0.524-0.58,0.748-0.891l5.725-5.725c28.263-4.234,101.451-19.828,153.674-72.051
		c65.987-65.987,73.497-165.462,73.497-165.462S447.621,199.34,396.639,223.17z"/>
</g>
<path d="M502.477,195.625c-0.002-0.101-0.008-0.201-0.014-0.301c-0.009-0.161-0.022-0.321-0.043-0.482
	c-0.012-0.099-0.026-0.198-0.043-0.296c-0.026-0.163-0.059-0.325-0.096-0.486c-0.021-0.09-0.042-0.18-0.066-0.269
	c-0.046-0.17-0.099-0.338-0.158-0.506c-0.026-0.077-0.052-0.154-0.08-0.23c-0.068-0.178-0.146-0.353-0.228-0.528
	c-0.029-0.063-0.057-0.127-0.088-0.189c-0.092-0.181-0.194-0.358-0.302-0.532c-0.031-0.052-0.06-0.105-0.092-0.157
	c-0.115-0.178-0.242-0.35-0.374-0.521c-0.033-0.043-0.062-0.089-0.096-0.131c-0.168-0.208-0.346-0.409-0.54-0.602
	c-0.192-0.192-0.393-0.371-0.6-0.538c-0.051-0.042-0.106-0.076-0.158-0.116c-0.16-0.123-0.321-0.242-0.487-0.35
	c-0.07-0.046-0.144-0.084-0.216-0.128c-0.152-0.091-0.305-0.182-0.462-0.262c-0.092-0.048-0.187-0.087-0.281-0.131
	c-0.139-0.064-0.277-0.128-0.419-0.182c-0.113-0.045-0.229-0.082-0.344-0.121c-0.125-0.042-0.249-0.082-0.375-0.116
	c-0.131-0.036-0.262-0.067-0.395-0.096c-0.114-0.025-0.229-0.048-0.343-0.068c-0.141-0.024-0.282-0.045-0.423-0.061
	c-0.114-0.013-0.23-0.022-0.344-0.03c-0.138-0.009-0.274-0.018-0.413-0.019c-0.143-0.002-0.287,0.004-0.429,0.01
	c-0.084,0.004-0.167-0.001-0.25,0.006c-1.05,0.079-26.096,2.059-59.635,12.314c-8.588,2.626-18.199,5.96-28.353,10.149
	c2.958-3.377,5.787-6.972,8.429-10.803c29.099-42.204,23.808-95.369,23.569-97.612c-0.008-0.072-0.025-0.142-0.034-0.213
	c-0.022-0.163-0.047-0.326-0.079-0.487c-0.021-0.104-0.047-0.206-0.072-0.308c-0.037-0.151-0.078-0.302-0.125-0.451
	c-0.031-0.099-0.065-0.198-0.099-0.296c-0.055-0.152-0.113-0.302-0.178-0.45c-0.038-0.088-0.076-0.175-0.117-0.261
	c-0.075-0.157-0.157-0.31-0.243-0.463c-0.042-0.073-0.08-0.146-0.124-0.217c-0.098-0.162-0.206-0.318-0.317-0.474
	c-0.042-0.058-0.079-0.116-0.123-0.172c-0.123-0.161-0.255-0.316-0.392-0.468c-0.041-0.046-0.078-0.093-0.12-0.138
	c-0.147-0.156-0.305-0.305-0.467-0.45c-0.038-0.034-0.073-0.072-0.112-0.105c-0.203-0.174-0.415-0.34-0.64-0.495
	c-0.226-0.156-0.457-0.296-0.692-0.423c-0.037-0.02-0.077-0.036-0.114-0.056c-0.202-0.105-0.406-0.204-0.614-0.29
	c-0.046-0.018-0.092-0.032-0.138-0.051c-0.203-0.079-0.406-0.152-0.613-0.212c-0.056-0.016-0.113-0.028-0.17-0.044
	c-0.197-0.053-0.394-0.1-0.594-0.137c-0.07-0.013-0.141-0.022-0.212-0.032c-0.185-0.028-0.371-0.053-0.557-0.067
	c-0.084-0.007-0.168-0.01-0.253-0.014c-0.172-0.008-0.344-0.01-0.517-0.007c-0.096,0.002-0.191,0.005-0.288,0.011
	c-0.162,0.01-0.322,0.025-0.483,0.046c-0.102,0.012-0.204,0.024-0.306,0.042c-0.158,0.026-0.314,0.06-0.469,0.096
	c-0.075,0.017-0.152,0.026-0.227,0.047c-2.181,0.573-53.754,14.531-82.853,56.733c-4.337,6.29-7.905,12.823-10.844,19.395
	c-4.776-45.354-21.539-85.267-35.959-112.389C280.797,24.86,262.597,3.536,261.833,2.645c-0.045-0.052-0.095-0.097-0.142-0.148
	c-0.114-0.126-0.23-0.25-0.352-0.368c-0.074-0.071-0.151-0.138-0.227-0.207c-0.118-0.105-0.24-0.209-0.365-0.306
	c-0.081-0.063-0.162-0.124-0.245-0.183c-0.132-0.095-0.266-0.185-0.405-0.271c-0.08-0.051-0.161-0.1-0.243-0.148
	c-0.151-0.087-0.306-0.167-0.463-0.243c-0.075-0.036-0.15-0.075-0.226-0.108c-0.171-0.077-0.347-0.144-0.526-0.208
	c-0.068-0.024-0.135-0.053-0.204-0.075c-0.189-0.062-0.384-0.113-0.58-0.16c-0.062-0.015-0.123-0.034-0.185-0.048
	c-0.207-0.045-0.417-0.076-0.63-0.103c-0.054-0.007-0.107-0.019-0.162-0.024C256.614,0.016,256.344,0,256.072,0
	s-0.542,0.016-0.807,0.044c-0.055,0.006-0.107,0.018-0.162,0.024c-0.213,0.027-0.423,0.059-0.63,0.103
	c-0.063,0.013-0.123,0.032-0.185,0.048c-0.196,0.048-0.39,0.098-0.58,0.16c-0.069,0.022-0.136,0.05-0.204,0.075
	c-0.178,0.064-0.353,0.132-0.526,0.208c-0.077,0.034-0.151,0.072-0.226,0.108c-0.157,0.077-0.312,0.156-0.463,0.243
	c-0.082,0.048-0.162,0.097-0.243,0.148c-0.138,0.086-0.273,0.176-0.405,0.271c-0.083,0.06-0.165,0.121-0.245,0.183
	c-0.126,0.098-0.246,0.201-0.365,0.306c-0.077,0.068-0.153,0.135-0.227,0.207c-0.123,0.117-0.238,0.242-0.352,0.368
	c-0.046,0.051-0.097,0.095-0.142,0.148c-0.766,0.89-18.965,22.214-37.352,56.798c-15.182,28.554-32.952,71.289-36.605,119.622
	c-3.407-8.983-7.906-18.032-13.833-26.628c-29.099-42.202-80.673-56.159-82.853-56.733c-0.075-0.019-0.151-0.029-0.226-0.047
	c-0.156-0.035-0.311-0.07-0.468-0.096c-0.104-0.017-0.209-0.029-0.313-0.043c-0.157-0.019-0.314-0.034-0.473-0.045
	c-0.1-0.006-0.2-0.01-0.299-0.011c-0.167-0.003-0.334-0.001-0.501,0.007c-0.089,0.004-0.178,0.008-0.267,0.015
	c-0.18,0.014-0.361,0.037-0.54,0.065c-0.076,0.011-0.152,0.021-0.227,0.035c-0.192,0.035-0.384,0.082-0.574,0.133
	c-0.063,0.016-0.126,0.03-0.188,0.049c-0.201,0.059-0.397,0.13-0.594,0.206c-0.052,0.02-0.104,0.035-0.155,0.057
	c-0.202,0.083-0.4,0.179-0.597,0.282c-0.044,0.022-0.088,0.041-0.131,0.064c-0.235,0.128-0.466,0.267-0.691,0.422
	s-0.438,0.321-0.64,0.495c-0.04,0.033-0.074,0.071-0.112,0.105c-0.162,0.145-0.32,0.294-0.467,0.45
	c-0.042,0.045-0.079,0.092-0.12,0.138c-0.137,0.152-0.269,0.307-0.392,0.468c-0.043,0.057-0.081,0.115-0.123,0.173
	c-0.11,0.155-0.218,0.311-0.316,0.473c-0.044,0.072-0.083,0.145-0.125,0.218c-0.086,0.152-0.168,0.305-0.242,0.462
	c-0.042,0.086-0.079,0.174-0.117,0.261c-0.064,0.148-0.124,0.298-0.178,0.45c-0.035,0.098-0.069,0.195-0.099,0.296
	c-0.047,0.149-0.087,0.299-0.125,0.451c-0.025,0.102-0.051,0.205-0.072,0.308c-0.032,0.161-0.057,0.324-0.079,0.487
	c-0.01,0.072-0.027,0.141-0.034,0.213c-0.239,2.243-5.53,55.408,23.569,97.612c2.092,3.034,4.304,5.919,6.603,8.667
	c-8.192-3.205-15.962-5.852-23.034-8.014c-33.538-10.255-58.585-12.235-59.635-12.314c-0.086-0.007-0.172-0.002-0.258-0.006
	c-0.139-0.005-0.277-0.012-0.415-0.01c-0.146,0.001-0.29,0.01-0.434,0.021c-0.106,0.007-0.212,0.015-0.317,0.027
	c-0.151,0.017-0.3,0.038-0.449,0.065c-0.105,0.018-0.211,0.04-0.316,0.062c-0.141,0.03-0.28,0.064-0.418,0.102
	c-0.118,0.032-0.236,0.072-0.353,0.11c-0.122,0.04-0.243,0.08-0.363,0.127c-0.137,0.053-0.27,0.114-0.404,0.175
	c-0.098,0.045-0.197,0.087-0.295,0.137c-0.153,0.078-0.301,0.166-0.45,0.255c-0.076,0.046-0.153,0.086-0.227,0.134
	c-0.163,0.105-0.321,0.224-0.477,0.343c-0.056,0.043-0.113,0.08-0.168,0.124c-0.207,0.167-0.407,0.345-0.6,0.538
	c-0.192,0.192-0.372,0.394-0.54,0.602c-0.034,0.043-0.063,0.088-0.096,0.131c-0.132,0.17-0.258,0.342-0.374,0.521
	c-0.033,0.052-0.061,0.104-0.092,0.157c-0.107,0.174-0.21,0.35-0.302,0.532c-0.031,0.063-0.059,0.127-0.088,0.19
	c-0.082,0.173-0.159,0.347-0.227,0.526c-0.029,0.076-0.054,0.154-0.081,0.231c-0.058,0.167-0.111,0.335-0.157,0.505
	c-0.024,0.089-0.045,0.179-0.066,0.269c-0.037,0.161-0.069,0.323-0.096,0.486c-0.016,0.098-0.03,0.196-0.043,0.296
	c-0.019,0.16-0.032,0.32-0.043,0.482c-0.006,0.1-0.012,0.201-0.014,0.301c-0.003,0.171,0.003,0.341,0.011,0.512
	c0.003,0.068-0.001,0.135,0.004,0.203c0.079,1.05,2.059,26.097,12.314,59.636c9.491,31.041,28.193,75.433,63.386,110.627
	c25.094,25.093,54.858,41.796,81.131,52.761v85.041c0,4.196,3.401,7.596,7.596,7.596h168.316c4.195,0,7.596-3.4,7.596-7.596v-86.853
	c25.199-10.967,53.134-27.198,76.885-50.949c35.193-35.194,53.895-79.585,63.386-110.627c10.255-33.539,12.235-58.585,12.314-59.636
	c0.005-0.068,0.001-0.135,0.004-0.203C502.474,195.967,502.48,195.796,502.477,195.625z M473.263,206.65l-69.287,69.287v-22.73
	c0-4.196-3.401-7.596-7.596-7.596c-4.195,0-7.596,3.4-7.596,7.596v37.922l-22.128,22.128v-22.73c0-4.196-3.401-7.596-7.596-7.596
	c-4.195,0-7.596,3.4-7.596,7.596v37.922l-22.122,22.122v-22.73c0-4.196-3.401-7.596-7.596-7.596c-4.195,0-7.596,3.4-7.596,7.596
	v37.922l-47.363,47.363c6.19-32.418,23.267-93.746,68.01-138.489C379.452,229.982,440.816,212.87,473.263,206.65z M329.082,256.773
	c0.294,0.034,0.588,0.065,0.882,0.065c0.315,0,0.63-0.021,0.942-0.061c0.1-0.012,0.2-0.037,0.299-0.054
	c0.168-0.028,0.337-0.052,0.504-0.09c-1.135,1.025-2.262,2.067-3.382,3.124C328.578,258.762,328.842,257.766,329.082,256.773z
	 M402.25,191.231c-14.496,21.023-35.928,34.357-52.04,42.041l27.734-40.221l18.13-3.331c4.126-0.759,6.857-4.718,6.098-8.844
	c-0.758-4.125-4.717-6.857-8.844-6.098l-3.188,0.586l32.935-47.764C421.637,145.364,416.801,170.127,402.25,191.231z
	 M358.494,161.06c14.495-21.023,35.928-34.357,52.04-42.04l-32.901,47.716l-0.585-3.187c-0.759-4.126-4.716-6.85-8.844-6.098
	c-4.126,0.759-6.857,4.718-6.098,8.844l3.331,18.129l-27.734,40.222C339.155,206.854,343.999,182.082,358.494,161.06z
	 M321.286,196.785c0,29.229-5.926,59.744-17.599,90.713c-19.656,26.295-32.2,54.671-40.019,77.724v-80.319l30.29-30.29
	c2.967-2.968,2.967-7.776,0-10.743c-2.967-2.966-7.776-2.966-10.742,0l-19.547,19.548v-37.601l30.29-30.289
	c2.967-2.968,2.967-7.776,0-10.742c-2.967-2.968-7.776-2.967-10.742-0.001l-19.547,19.547v-37.608l30.29-30.29
	c2.967-2.968,2.967-7.776,0-10.743c-2.967-2.966-7.776-2.966-10.742,0l-19.547,19.548V30.363
	C284.23,60.091,321.286,123.796,321.286,196.785z M226.187,66.925c7.922-14.939,15.896-27.403,22.288-36.612v114.925l-19.547-19.548
	c-2.967-2.966-7.776-2.966-10.742,0c-2.967,2.968-2.967,7.776,0,10.743l30.29,30.29v37.608l-19.547-19.547
	c-2.967-2.966-7.776-2.967-10.742,0.001c-2.967,2.967-2.967,7.775,0,10.742l30.29,30.289v37.601l-19.547-19.548
	c-2.967-2.966-7.776-2.966-10.742,0c-2.967,2.968-2.967,7.776,0,10.743l30.29,30.29v80.738
	c-7.772-23.017-20.264-51.42-39.878-77.768c-11.766-31.099-17.74-61.739-17.74-91.087C190.857,144.523,210.07,97.321,226.187,66.925
	z M181.846,256.078c0.322-0.156,0.632-0.34,0.933-0.542c0.346,1.464,0.71,2.929,1.083,4.395c-1.187-1.123-2.382-2.227-3.586-3.315
	C180.808,256.491,181.337,256.325,181.846,256.078z M150.014,161.06c14.496,21.023,19.339,45.796,20.792,63.587l-27.734-40.222
	l3.332-18.13c0.759-4.126-1.972-8.085-6.098-8.844c-4.122-0.759-8.085,1.971-8.844,6.098l-0.585,3.188L97.975,119.02
	C114.088,126.704,135.518,140.038,150.014,161.06z M85.466,127.644l32.902,47.718l-3.188-0.586
	c-4.125-0.758-8.085,1.973-8.844,6.098c-0.759,4.126,1.972,8.085,6.098,8.844l18.13,3.331l27.733,40.221
	c-16.114-7.684-37.544-21.017-52.04-42.04C91.762,170.207,86.919,145.435,85.466,127.644z M177.203,274.636
	c44.655,44.654,61.768,106.019,67.987,138.466l-47.34-47.34v-37.922c0-4.196-3.401-7.596-7.596-7.596s-7.596,3.4-7.596,7.596v22.73
	l-22.122-22.122v-37.921c0-4.196-3.401-7.596-7.596-7.596s-7.596,3.4-7.596,7.596v22.729l-22.128-22.128v-37.921
	c0-4.196-3.401-7.596-7.596-7.596s-7.596,3.4-7.596,7.596v22.729l-69.31-69.31C71.133,212.817,132.461,229.893,177.203,274.636z
	 M27.995,217.393l69.287,69.287h-22.73c-4.195,0-7.596,3.4-7.596,7.596s3.401,7.596,7.596,7.596h37.922L134.602,324h-22.73
	c-4.195,0-7.596,3.4-7.596,7.596s3.401,7.596,7.596,7.596h37.922l22.122,22.122h-22.73c-4.195,0-7.596,3.4-7.596,7.596
	s3.401,7.596,7.596,7.596h37.922l47.363,47.363c-32.418-6.19-93.746-23.267-138.489-68.01
	C51.327,311.204,34.214,249.841,27.995,217.393z M334.685,491.711l-153.124-23.017v-17.37l153.124,23.017V491.711z M181.562,484.058
	l84.815,12.749h-84.815V484.058z M334.685,458.978l-153.124-23.017v-10.719c5.001,1.789,9.796,3.368,14.303,4.746
	c31.431,9.61,55.402,11.952,59.156,12.274c0.057,0.007,0.111,0.019,0.168,0.024c0.241,0.023,0.484,0.035,0.726,0.036
	c0.005,0,0.009,0,0.014,0l0,0l0,0c0.001,0,0.001,0,0.001,0c0.023,0,0.047-0.002,0.07-0.003c0.023,0,0.046,0.003,0.069,0.003h0.002
	l0,0l0,0c0.005,0,0.009,0,0.014,0c0.242,0,0.485-0.012,0.726-0.036c0.057-0.005,0.112-0.017,0.168-0.024
	c3.754-0.321,27.725-2.664,59.156-12.274c5.77-1.764,12.002-3.848,18.549-6.296v35.286H334.685z M416.02,355.858
	c-44.655,44.654-106.019,61.767-138.466,67.986l47.34-47.34h37.922c4.195,0,7.596-3.4,7.596-7.596s-3.401-7.596-7.596-7.596h-22.73
	l22.122-22.122h37.922c4.195,0,7.596-3.4,7.596-7.596s-3.401-7.596-7.596-7.596H377.4l22.128-22.128h37.922
	c4.195,0,7.596-3.4,7.596-7.596s-3.401-7.596-7.596-7.596h-22.73l69.31-69.31C477.838,249.788,460.762,311.116,416.02,355.858z"/>
</svg>