<?xml version="1.0" encoding="iso-8859-1"?>
<!-- Uploaded to: SVG Repo, www.svgrepo.com, Generator: SVG Repo Mixer Tools -->
<svg height="800px" width="800px" version="1.1" id="Layer_1" xmlns="http://www.w3.org/2000/svg" xmlns:xlink="http://www.w3.org/1999/xlink" 
	 viewBox="0 0 512.001 512.001" xml:space="preserve">
<path style="fill:#F7B239;" d="M384.193,377.648c-11.662,9.327-24.596,13.985-36.988,15.943
	c-38.913,6.141-72.891,29.663-90.77,64.77l-0.432,0.863l-0.443-0.863c-17.869-35.107-51.847-58.629-90.759-64.77
	c-12.403-1.958-25.337-6.616-36.988-15.943c11.651-7.767-28.49-27.196-34.963-72.515c12.945,9.073-1.295-33.657,9.062-53.086
	c12.945,9.062,28.49-24.596,31.079-51.791c23.301,5.178,38.846-19.418,38.846-45.319c15.534,2.589,31.068-10.356,31.068-42.73
	c7.778,7.767,25.901-14.24,24.607-36.257c9.062,9.062,16.829-16.829,11.651-41.435c10.367,6.473,16.84-26.222,16.84-26.222
	s6.473,32.695,16.829,26.222c-5.178,24.607,2.589,50.497,11.651,41.435c-1.294,22.018,16.84,44.024,24.607,36.257
	c0,32.374,15.534,45.319,31.079,42.73c0,25.901,15.534,50.497,38.846,45.319c2.589,27.196,18.123,60.853,31.068,51.791
	c10.356,19.429-3.884,62.159,9.062,53.086C412.672,350.453,372.531,369.881,384.193,377.648z"/>
<path style="fill:#E09B2D;" d="M256.003,8.294v450.931l-0.443-0.863c-17.869-35.107-51.847-58.629-90.759-64.77
	c-12.403-1.958-25.337-6.616-36.988-15.943c11.651-7.767-28.49-27.196-34.963-72.515c12.945,9.073-1.295-33.657,9.062-53.086
	c12.945,9.062,28.49-24.596,31.079-51.791c23.301,5.178,38.846-19.418,38.846-45.319c15.534,2.589,31.068-10.356,31.068-42.73
	c7.778,7.767,25.901-14.24,24.607-36.257c9.062,9.062,16.829-16.829,11.651-41.435C249.531,40.987,256.003,8.294,256.003,8.294z"/>
<g>
	<circle style="fill:#FFFFFF;" cx="315.749" cy="183.278" r="8.298"/>
	<circle style="fill:#FFFFFF;" cx="351.154" cy="225.322" r="8.298"/>
	<circle style="fill:#FFFFFF;" cx="384.347" cy="278.43" r="8.298"/>
</g>
<path style="fill:#333333;" d="M423.494,298.068c-0.594-0.365-1.221-0.648-1.869-0.851c0.04-2.566,0.209-5.69,0.35-8.282
	c0.707-13.031,1.588-29.249-4.567-40.79c-1.117-2.096-3.079-3.612-5.389-4.166c-2.26-0.541-4.648-0.108-6.574,1.192
	c-4.414-1.784-15.799-20.772-18.173-45.702c-0.226-2.369-1.457-4.526-3.381-5.925s-4.357-1.903-6.679-1.389
	c-5.739,1.276-10.966,0.062-15.536-3.604c-8.025-6.437-13.211-19.632-13.211-33.615c0-2.44-1.073-4.754-2.934-6.332
	c-1.861-1.577-4.322-2.254-6.728-1.853c-4.209,0.701-8.162-0.395-11.438-3.17c-6.433-5.449-9.975-16.592-9.975-31.375
	c0-3.357-2.021-6.382-5.123-7.666c-2.492-1.032-5.289-0.776-7.523,0.597c-4.123-2.454-12.795-14.681-11.97-28.698
	c0.203-3.439-1.771-6.617-4.914-8.029c-1.852-0.831-3.901-0.928-5.772-0.37c-2.118-5.261-4.111-17.655-1.131-31.813
	c0.686-3.256-0.64-6.606-3.367-8.512c-1.949-1.363-4.35-1.798-6.589-1.291c-2.266-3.314-5.282-11.836-6.858-19.741
	c-0.771-3.886-4.179-6.683-8.138-6.685c-0.002,0-0.003,0-0.006,0c-3.958,0-7.365,2.797-8.139,6.678
	c-1.576,7.909-4.592,16.433-6.858,19.746c-2.24-0.508-4.638-0.072-6.589,1.291c-2.727,1.905-4.053,5.255-3.367,8.512
	c2.975,14.134,0.994,26.509-1.12,31.786c-1.879-0.571-3.942-0.47-5.812,0.37c-3.143,1.411-5.087,4.618-4.885,8.057
	c0.824,14.018-7.849,26.244-11.971,28.698c-2.233-1.373-5.03-1.63-7.523-0.597c-3.101,1.285-5.123,4.311-5.123,7.666
	c0,14.783-3.543,25.926-9.975,31.375c-3.276,2.775-7.233,3.872-11.438,3.17c-2.404-0.398-4.866,0.278-6.728,1.853
	c-1.861,1.577-2.934,3.892-2.934,6.332c0,13.983-5.186,27.177-13.211,33.615c-4.57,3.667-9.795,4.88-15.536,3.604
	c-2.323-0.516-4.754-0.011-6.679,1.389c-1.924,1.4-3.156,3.557-3.381,5.925c-2.374,24.93-13.759,43.918-18.173,45.702
	c-1.926-1.3-4.313-1.734-6.574-1.192c-2.309,0.553-4.272,2.07-5.389,4.165c-6.156,11.542-5.275,27.76-4.567,40.791
	c0.141,2.592,0.31,5.717,0.35,8.282c-0.646,0.202-1.275,0.485-1.869,0.851c-2.818,1.732-4.338,4.97-3.871,8.244
	c4.013,28.091,19.543,46.652,29.818,58.935c2.254,2.694,4.921,5.882,6.332,7.987c-0.757,1.203-1.2,2.597-1.265,4.056
	c-0.115,2.645,1.039,5.186,3.107,6.84c11.579,9.263,25.333,15.204,40.878,17.658c36.391,5.746,67.787,27.947,84.196,59.46v42.454
	c0,4.583,3.715,8.298,8.298,8.298s8.298-3.715,8.298-8.298V461.25c16.413-31.515,47.806-53.715,84.197-59.461
	c15.545-2.455,29.298-8.396,40.878-17.658c2.068-1.654,3.222-4.194,3.107-6.84c-0.064-1.458-0.508-2.852-1.265-4.056
	c1.411-2.105,4.078-5.294,6.332-7.987c10.276-12.283,25.805-30.844,29.818-58.935C427.832,303.039,426.312,299.799,423.494,298.068z
	 M384.818,354.597c-6.603,7.892-11.458,13.696-11.014,20.333c-8.16,5.313-17.516,8.826-27.897,10.464
	c-32.464,5.126-61.481,21.77-81.609,46.037v-46.36c18.135-8.727,79.738-41.033,95.018-83.815c1.541-4.316-0.708-9.064-5.024-10.605
	c-4.315-1.542-9.064,0.708-10.605,5.024c-11.528,32.276-57.527,59.426-79.389,70.797v-66.065
	c11.948-5.846,40.528-21.26,48.291-38.336c1.896-4.172,0.052-9.091-4.12-10.988s-9.091-0.052-10.988,4.12
	c-3.889,8.556-19.498,19.103-33.183,26.537v-64.699l16.568-9.243c4.002-2.233,5.437-7.287,3.204-11.29
	c-2.233-4.002-7.287-5.436-11.29-3.204l-8.481,4.731v-57.228c0-4.583-3.715-8.298-8.298-8.298c-4.583,0-8.298,3.715-8.298,8.298
	v57.228l-8.481-4.731c-4.003-2.232-9.056-0.799-11.29,3.204c-2.233,4.002-0.799,9.057,3.204,11.29l16.566,9.243v64.705
	c-13.678-7.424-29.284-17.968-33.181-26.545c-1.896-4.173-6.819-6.017-10.988-4.12c-4.172,1.896-6.017,6.817-4.12,10.988
	c7.763,17.076,36.342,32.49,48.291,38.336v66.075c-7.551-3.923-17.972-9.725-28.842-16.981
	c-26.905-17.957-44.383-36.57-50.547-53.826c-1.541-4.316-6.292-6.565-10.605-5.024c-4.316,1.541-6.565,6.29-5.024,10.605
	c15.28,42.783,76.883,75.088,95.017,83.816v46.36c-20.128-24.267-49.144-40.911-81.608-46.037
	c-10.382-1.639-19.738-5.153-27.897-10.465c0.445-6.636-4.411-12.441-11.014-20.333c-8.454-10.104-19.656-23.495-24.506-42.507
	c4.991-4.333,4.553-12.418,3.921-24.053c-0.438-8.071-1.002-18.462,0.631-26.192c2.059-0.114,4.139-0.641,6.187-1.587
	c8.833-4.078,15.157-15.422,18.906-24.221c3.513-8.241,6.246-17.662,7.822-26.791c7.427-0.202,14.42-2.817,20.568-7.748
	c10.211-8.191,17.125-22.364,18.945-38.203c5.717-0.758,11.106-3.15,15.709-7.049c6.279-5.32,13.607-15.535,15.421-34.716
	c0.867-0.238,1.737-0.551,2.605-0.94c9.639-4.328,19.622-18.844,21.97-35.233c0.562-0.207,1.119-0.458,1.663-0.753
	c7.01-3.797,9.937-13.743,11.156-21.418c1.081-6.796,1.237-14.189,0.488-21.473c2.882-1.768,5.304-4.655,7.329-8.082
	c2.025,3.429,4.446,6.315,7.329,8.082c-0.748,7.285-0.593,14.678,0.488,21.473c1.221,7.675,4.147,17.621,11.157,21.418
	c0.545,0.295,1.101,0.547,1.663,0.753c2.349,16.388,12.331,30.904,21.97,35.233c0.867,0.389,1.738,0.703,2.606,0.94
	c1.816,19.182,9.142,29.396,15.421,34.716c4.603,3.899,9.992,6.292,15.709,7.05c1.82,15.839,8.734,30.012,18.945,38.203
	c6.148,4.932,13.14,7.547,20.567,7.748c1.577,9.128,4.31,18.55,7.822,26.791c3.75,8.798,10.074,20.142,18.906,24.221
	c2.048,0.945,4.127,1.473,6.187,1.587c1.633,7.731,1.069,18.12,0.631,26.192c-0.632,11.635-1.07,19.721,3.921,24.053
	C404.473,331.102,393.271,344.493,384.818,354.597z"/>
</svg>