<?xml version="1.0" encoding="iso-8859-1"?>
<!-- Uploaded to: SVG Repo, www.svgrepo.com, Generator: SVG Repo Mixer Tools -->
<svg version="1.1" id="Layer_1" xmlns="http://www.w3.org/2000/svg" xmlns:xlink="http://www.w3.org/1999/xlink" 
	 viewBox="0 0 512 512" xml:space="preserve">
<path style="fill:#F9AA45;" d="M498.526,256.001l-73.297,54.973l26.947,87.633l-91.621,1.293l-29.642,86.771L256,433.853
	l-74.914,52.817l-29.642-86.771l-91.621-1.293l26.947-87.633l-73.297-54.973l73.297-54.973l-26.947-87.633l91.621-1.293
	l29.642-86.771L256,78.148l74.914-52.817l29.642,86.771l91.621,1.293l-26.947,87.633L498.526,256.001z M385.347,256.001
	c0-71.464-57.883-129.347-129.347-129.347s-129.347,57.883-129.347,129.347S184.536,385.348,256,385.348
	S385.347,327.465,385.347,256.001z"/>
<path style="fill:#FFD248;" d="M256,126.653c71.464,0,129.347,57.883,129.347,129.347S327.464,385.348,256,385.348
	s-129.347-57.883-129.347-129.347S184.536,126.653,256,126.653z"/>
<path style="fill:#FDC147;" d="M223.663,256.001c0-54.296,33.448-100.678,80.842-119.865c-14.987-6.067-31.337-9.482-48.505-9.482
	c-71.464,0-129.347,57.883-129.347,129.347S184.536,385.348,256,385.348c17.169,0,33.518-3.415,48.505-9.482
	C257.111,356.678,223.663,310.296,223.663,256.001z"/>
<path d="M335.074,499.495L256,443.744l-79.075,55.751l-31.289-91.593l-96.709-1.366l28.447-92.507L0,256.001l77.372-58.03
	l-28.446-92.507l96.709-1.366l31.289-91.593L256,68.256l79.074-55.751l31.29,91.593l96.709,1.366l-28.447,92.507L512,256.001
	l-77.372,58.03l28.447,92.507l-96.709,1.366L335.074,499.495z M256,423.961l70.753,49.883l27.995-81.948l86.532-1.221
	l-25.448-82.759l69.22-51.916l-69.221-51.916l25.448-82.759l-86.532-1.221l-27.994-81.949L256,88.04l-70.752-49.883l-27.995,81.948
	l-86.533,1.221l25.448,82.759l-69.22,51.916l69.221,51.916l-25.448,82.759l86.533,1.221l27.995,81.948L256,423.961z"/>
<path d="M256,393.432c-75.78,0-137.432-61.651-137.432-137.432c0-39.062,16.696-76.404,45.807-102.454l10.781,12.049
	c-25.687,22.986-40.42,55.937-40.42,90.405c0,66.865,54.398,121.263,121.263,121.263c29.893,0,58.603-10.959,80.842-30.857
	l10.781,12.05C322.416,381.01,289.877,393.432,256,393.432z"/>
<path d="M363.299,341.904l-12.617-10.112c17.39-21.697,26.581-47.906,26.581-75.792c0-66.865-54.399-121.263-121.263-121.263
	c-23.408,0-46.119,6.671-65.679,19.293l-8.767-13.586c22.179-14.311,47.922-21.876,74.446-21.876
	c75.78,0,137.432,61.651,137.432,137.432C393.432,287.151,382.73,317.659,363.299,341.904z"/>
<path d="M177.853,256.001h-16.168c0-52.006,42.31-94.316,94.316-94.316v16.168C212.909,177.853,177.853,212.91,177.853,256.001z"/>
<g>
	<path style="fill:#FFFFFF;" d="M256,350.316v-16.168c43.091,0,78.147-35.056,78.147-78.147h16.168
		C350.316,308.007,308.006,350.316,256,350.316z"/>
	<rect x="161.684" y="272.169" style="fill:#FFFFFF;" width="16.168" height="21.558"/>
</g>
<rect x="334.147" y="218.274" width="16.168" height="21.558"/>
</svg>