<?xml version="1.0" encoding="iso-8859-1"?>
<!-- Uploaded to: SVG Repo, www.svgrepo.com, Generator: SVG Repo Mixer Tools -->
<svg version="1.1" id="Layer_1" xmlns="http://www.w3.org/2000/svg" xmlns:xlink="http://www.w3.org/1999/xlink" 
	 viewBox="0 0 512 512" xml:space="preserve">
<g>
	<polyline style="fill:#EAA0E3;" points="333.662,347.794 432.973,186.052 456.764,203.026 354.667,443.713 	"/>
	<polygon style="fill:#EAA0E3;" points="315.232,263.593 147.217,263.593 107.785,443.714 354.664,443.714 	"/>
</g>
<g>
	<polygon style="fill:#D57CD4;" points="160.847,443.714 182.095,263.593 147.217,263.593 107.785,443.714 	"/>
	<polygon style="fill:#D57CD4;" points="504.042,192.63 422.505,134.456 432.973,186.052 456.764,203.026 	"/>
	<rect x="129.034" y="443.715" style="fill:#D57CD4;" width="204.384" height="26.245"/>
</g>
<g>
	<path style="fill:#F4C063;" d="M117.848,196.58c12.101,0,21.926,9.815,21.926,21.926s-9.825,21.926-21.926,21.926
		c-12.111,0-21.935-9.815-21.935-21.926C95.913,206.394,105.738,196.58,117.848,196.58z"/>
	<path style="fill:#F4C063;" d="M76.628,140.799c6.031,6.031,16.674,22.513,22.098,36.951c-9.49,4.452-17.18,12.142-21.632,21.632
		c-14.439-5.424-30.921-16.067-36.951-22.098c-10.077-10.077-10.077-26.408,0-36.485C50.22,130.722,66.551,130.722,76.628,140.799z"
		/>
	<path style="fill:#F4C063;" d="M75.505,203.206c-1.73,4.775-2.672,9.925-2.672,15.298c0,5.373,0.941,10.523,2.672,15.298
		c-14.044,6.365-33.227,10.502-41.747,10.502c-14.256,0-25.8-11.555-25.8-25.8c0-14.246,11.544-25.8,25.8-25.8
		C42.277,192.704,61.462,196.843,75.505,203.206z"/>
	<path style="fill:#F4C063;" d="M98.726,259.26c-5.424,14.439-16.067,30.921-22.098,36.951c-10.077,10.077-26.408,10.077-36.485,0
		s-10.077-26.408,0-36.485c6.031-6.031,22.513-16.674,36.951-22.098C81.546,247.119,89.235,254.808,98.726,259.26z"/>
	<path style="fill:#F4C063;" d="M133.148,260.849c6.365,14.044,10.502,33.227,10.502,41.747c0,14.256-11.555,25.8-25.8,25.8
		s-25.8-11.544-25.8-25.8c0-8.52,4.138-27.703,10.502-41.747c4.775,1.73,9.925,2.672,15.298,2.672
		C123.222,263.52,128.371,262.579,133.148,260.849z"/>
	<path style="fill:#F4C063;" d="M266.003,129.854c12.072-0.846,22.557,8.26,23.404,20.341s-8.269,22.558-20.341,23.404
		c-12.081,0.846-22.568-8.259-23.413-20.34C244.806,141.176,253.921,130.7,266.003,129.854z"/>
</g>
<g>
	<path style="fill:#74C194;" d="M220.987,77.089c6.437,5.594,18.206,21.292,24.625,35.317c-9.156,5.104-16.29,13.312-20.068,23.091
		c-14.782-4.402-31.967-13.869-38.404-19.463c-10.757-9.349-11.898-25.639-2.548-36.396C193.94,68.88,210.231,67.74,220.987,77.089z
		"/>
	<path style="fill:#74C194;" d="M224.226,139.423c-1.392,4.885-1.971,10.088-1.596,15.448c0.376,5.36,1.673,10.431,3.734,15.074
		c-13.565,7.329-32.412,12.797-40.912,13.393c-14.221,0.995-26.545-9.725-27.539-23.936c-0.994-14.212,9.714-26.544,23.936-27.539
		C190.346,131.267,209.771,134.055,224.226,139.423z"/>
	<path style="fill:#74C194;" d="M251.305,193.717c-4.402,14.782-13.869,31.967-19.463,38.404
		c-9.349,10.757-25.639,11.898-36.396,2.548c-10.757-9.349-11.898-25.639-2.548-36.396c5.594-6.437,21.292-18.206,35.317-24.625
		C233.318,182.805,241.526,189.939,251.305,193.717z"/>
	<path style="fill:#74C194;" d="M285.753,192.898c7.329,13.565,12.797,32.412,13.393,40.912
		c0.995,14.221-9.725,26.545-23.936,27.539c-14.212,0.995-26.544-9.714-27.539-23.936c-0.595-8.498,2.193-27.925,7.561-42.378
		c4.885,1.392,10.088,1.971,15.448,1.596C276.039,196.255,281.109,194.957,285.753,192.898z"/>
	<path style="fill:#74C194;" d="M309.525,167.956c14.781,4.402,31.967,13.869,38.404,19.463
		c10.757,9.349,11.898,25.639,2.548,36.396c-9.349,10.757-25.639,11.898-36.396,2.548c-6.437-5.594-18.206-21.292-24.625-35.317
		C298.623,185.932,305.737,177.735,309.525,167.956z"/>
	<path style="fill:#74C194;" d="M349.618,120.115c14.221-0.995,26.545,9.725,27.539,23.936c0.994,14.212-9.714,26.544-23.936,27.539
		c-8.498,0.595-27.925-2.193-42.378-7.561l-0.011,0.001c1.392-4.885,1.971-10.088,1.596-15.448
		c-0.376-5.36-1.673-10.431-3.734-15.074l0.01-0.001C322.271,126.179,341.119,120.71,349.618,120.115z"/>
	<path style="fill:#74C194;" d="M339.623,68.783c10.757,9.349,11.898,25.639,2.548,36.396c-5.594,6.437-21.292,18.206-35.317,24.625
		c-5.114-9.156-13.301-16.282-23.09-20.068c4.402-14.782,13.869-31.967,19.463-38.404C312.576,60.574,328.866,59.433,339.623,68.783
		z"/>
	<path style="fill:#74C194;" d="M287.399,66.039c0.595,8.498-2.193,27.925-7.561,42.378c-4.885-1.392-10.088-1.971-15.448-1.596
		c-5.36,0.376-10.431,1.673-15.074,3.734c-7.329-13.565-12.797-32.412-13.393-40.912c-0.995-14.221,9.725-26.545,23.936-27.539
		C274.071,41.108,286.403,51.818,287.399,66.039z"/>
</g>
<path style="fill:#EC589B;" d="M306.855,129.804c0.673,1.201,1.286,2.436,1.842,3.705c2.059,4.643,3.358,9.715,3.734,15.074
	c0.376,5.359-0.204,10.563-1.596,15.448c-0.373,1.335-0.808,2.643-1.307,3.926c-3.789,9.779-10.902,17.976-20.068,23.091
	c-1.201,0.673-2.435,1.296-3.704,1.851c-4.643,2.059-9.715,3.358-15.074,3.734c-5.359,0.376-10.563-0.204-15.448-1.596
	c-1.335-0.373-2.643-0.808-3.927-1.318c-9.779-3.778-17.986-10.912-23.091-20.068c-0.682-1.2-1.296-2.435-1.851-3.704
	c-2.059-4.643-3.358-9.715-3.734-15.074c-0.376-5.36,0.204-10.563,1.596-15.448c0.373-1.335,0.808-2.643,1.318-3.927
	c3.778-9.779,10.912-17.986,20.068-23.091c1.2-0.682,2.435-1.296,3.704-1.851c4.643-2.059,9.715-3.358,15.074-3.734
	c5.36-0.376,10.563,0.204,15.448,1.596c1.335,0.373,2.644,0.819,3.927,1.318C293.553,113.522,301.741,120.648,306.855,129.804z
	 M289.406,150.194c-0.846-12.081-11.332-21.186-23.404-20.341c-12.081,0.846-21.197,11.323-20.351,23.404
	c0.846,12.081,11.332,21.186,23.413,20.34C281.137,172.754,290.253,162.277,289.406,150.194z"/>
<g>
	<path style="fill:#F4C063;" d="M158.604,237.628c14.439,5.424,30.921,16.067,36.951,22.098c10.077,10.077,10.077,26.408,0,36.485
		c-10.077,10.077-26.408,10.077-36.485,0c-6.031-6.03-16.674-22.513-22.098-36.951C146.472,254.798,154.142,247.119,158.604,237.628
		z"/>
	<path style="fill:#F4C063;" d="M201.939,192.704c14.256,0,25.8,11.555,25.8,25.8c0,14.246-11.544,25.8-25.8,25.8
		c-8.52,0-27.703-4.138-41.747-10.502h-0.011c1.73-4.775,2.672-9.925,2.672-15.298s-0.941-10.523-2.672-15.298h0.011
		C174.236,196.843,193.42,192.704,201.939,192.704z"/>
	<path style="fill:#F4C063;" d="M195.555,140.799c10.077,10.077,10.077,26.408,0,36.485c-6.031,6.031-22.513,16.674-36.951,22.098
		c-4.462-9.49-12.131-17.171-21.632-21.632c5.424-14.439,16.067-30.921,22.098-36.951
		C169.147,130.722,185.477,130.722,195.555,140.799z"/>
	<path style="fill:#F4C063;" d="M143.65,134.415c0,8.52-4.138,27.703-10.502,41.747c-4.775-1.73-9.925-2.672-15.298-2.672
		c-5.373,0-10.523,0.941-15.298,2.672c-6.365-14.044-10.502-33.227-10.502-41.747c0-14.256,11.555-25.8,25.8-25.8
		S143.65,120.159,143.65,134.415z"/>
</g>
<path style="fill:#EC589B;" d="M158.604,199.382c0.587,1.245,1.113,2.52,1.579,3.825c1.73,4.775,2.672,9.925,2.672,15.298
	c0,5.373-0.941,10.523-2.672,15.298c-0.466,1.305-0.992,2.58-1.579,3.825c-4.462,9.49-12.131,17.171-21.632,21.632
	c-1.245,0.587-2.52,1.124-3.825,1.588c-4.775,1.73-9.925,2.672-15.298,2.672c-5.373,0-10.523-0.941-15.298-2.672
	c-1.305-0.466-2.58-0.992-3.825-1.588c-9.49-4.452-17.18-12.142-21.632-21.632c-0.597-1.245-1.124-2.52-1.588-3.825
	c-1.73-4.775-2.672-9.925-2.672-15.298s0.941-10.523,2.672-15.298c0.466-1.305,0.992-2.58,1.588-3.825
	c4.452-9.49,12.142-17.18,21.632-21.632c1.244-0.597,2.52-1.124,3.825-1.588c4.775-1.73,9.925-2.672,15.298-2.672
	c5.373,0,10.523,0.941,15.298,2.672c1.305,0.466,2.58,1.002,3.825,1.588C146.472,182.212,154.142,189.891,158.604,199.382z
	 M139.774,218.504c0-12.111-9.825-21.926-21.926-21.926c-12.111,0-21.935,9.815-21.935,21.926c0,12.111,9.825,21.926,21.935,21.926
	C129.95,240.43,139.774,230.616,139.774,218.504z"/>
<path d="M508.664,186.153l-81.538-58.175c-2.66-1.898-6.211-1.976-8.952-0.197c-2.742,1.779-4.117,5.054-3.467,8.257l9.845,48.523
	l-87.337,142.241l-14.211-64.914c-0.8-3.652-4.035-6.255-7.774-6.255h-14.673c4.604-6.233,7.107-14.062,6.525-22.38
	c-0.06-0.867-0.164-1.818-0.306-2.837c0.729,0.726,1.427,1.381,2.085,1.952c6.197,5.386,13.965,8.283,22.095,8.282
	c0.799,0,1.603-0.028,2.407-0.085c8.994-0.629,17.205-4.726,23.12-11.532c5.916-6.807,8.827-15.508,8.198-24.502
	c-0.63-8.994-4.726-17.205-11.532-23.12c-0.657-0.571-1.404-1.171-2.224-1.792c1.027-0.002,1.985-0.032,2.852-0.092
	c7.331-0.513,14.139-3.317,19.688-8.107c3.326-2.872,3.695-7.897,0.823-11.223c-2.872-3.326-7.897-3.695-11.223-0.823
	c-2.927,2.527-6.524,4.006-10.401,4.278c-5.97,0.412-20.053-1.299-32.609-4.964c0.456-3.497,0.57-7.064,0.318-10.663
	c-0.251-3.599-0.862-7.115-1.8-10.514c11.921-5.381,25.631-9.04,31.599-9.46c9.822-0.693,18.359,6.739,19.046,16.554
	c0.294,4.195,3.788,7.402,7.93,7.402c0.187,0,0.376-0.006,0.564-0.02c4.384-0.307,7.689-4.11,7.382-8.493
	c-1.301-18.569-17.471-32.618-36.033-31.317c-0.867,0.06-1.818,0.164-2.836,0.306c0.725-0.729,1.381-1.427,1.952-2.084
	c5.916-6.807,8.827-15.508,8.198-24.502c-0.629-8.994-4.726-17.205-11.532-23.12c-6.807-5.917-15.513-8.827-24.502-8.198
	c-8.994,0.629-17.205,4.726-23.12,11.532c-0.571,0.657-1.171,1.404-1.792,2.224c-0.002-1.028-0.032-1.984-0.093-2.852
	c-0.63-8.997-4.726-17.21-11.533-23.125c-6.806-5.913-15.505-8.816-24.501-8.194c-18.568,1.3-32.618,17.464-31.319,36.033
	c0.06,0.867,0.164,1.817,0.306,2.835c-0.729-0.725-1.427-1.38-2.084-1.951c-14.048-12.211-35.412-10.715-47.622,3.335
	c-5.916,6.807-8.827,15.508-8.198,24.502s4.726,17.205,11.532,23.12c0.658,0.572,1.406,1.172,2.226,1.793
	c-1.028,0.002-1.985,0.033-2.853,0.093c-2.795,0.195-5.539,0.753-8.186,1.625c-7.421,0.918-14.289,4.246-19.663,9.621
	c-0.615,0.615-1.267,1.319-1.943,2.093c0.069-1.025,0.106-1.982,0.106-2.851c0-18.615-15.143-33.758-33.758-33.758
	s-33.758,15.143-33.758,33.758c0,0.869,0.037,1.826,0.106,2.851c-0.677-0.774-1.327-1.478-1.943-2.093
	c-6.376-6.377-14.853-9.889-23.87-9.889s-17.492,3.512-23.87,9.889c-13.161,13.161-13.161,34.577,0,47.739
	c0.615,0.615,1.319,1.266,2.092,1.943c-1.025-0.069-1.982-0.106-2.851-0.106C15.143,184.747,0,199.89,0,218.504
	s15.143,33.758,33.758,33.758c0.869,0,1.826-0.037,2.851-0.106c-0.775,0.676-1.477,1.326-2.092,1.943
	c-13.161,13.161-13.161,34.577,0,47.739c6.376,6.377,14.853,9.889,23.87,9.889c9.015,0,17.492-3.512,23.87-9.888
	c0.615-0.615,1.266-1.319,1.943-2.092c-0.069,1.025-0.106,1.981-0.106,2.85c0,18.615,15.143,33.758,33.758,33.758
	c1.833,0,3.632-0.153,5.387-0.435l-14.395,65.75c-0.94,4.293,1.778,8.534,6.072,9.475c0.574,0.125,1.146,0.186,1.709,0.186
	c3.657,0,6.951-2.538,7.765-6.257l17.183-78.486c6.192-6.123,10.036-14.615,10.036-23.99c0-0.869-0.037-1.826-0.106-2.851
	c0.677,0.773,1.327,1.478,1.943,2.093c6.376,6.377,14.853,9.889,23.87,9.889c9.015,0,17.492-3.512,23.87-9.889
	c8.218-8.218,11.305-19.654,9.259-30.289h98.386l35.945,164.206H117.669l1.909-8.716c0.94-4.293-1.778-8.534-6.072-9.475
	c-4.292-0.94-8.535,1.778-9.475,6.072l-4.023,18.375c-0.515,2.353,0.064,4.814,1.574,6.69c1.51,1.877,3.79,2.969,6.199,2.969h13.294
	v18.291c0,4.395,3.563,7.957,7.957,7.957h204.384c4.395,0,7.957-3.563,7.957-7.957v-18.291h13.286c2.409,0,4.688-1.092,6.199-2.969
	c0.439-0.545,0.789-1.144,1.067-1.771c0.021-0.037,0.05-0.069,0.067-0.108l75.834-178.776c1.717-4.045-0.172-8.717-4.218-10.432
	c-4.044-1.716-8.716,0.173-10.432,4.218L357.093,417.62l-14.971-68.393l93.17-151.742l11.653,8.314l-14.741,34.752
	c-1.717,4.045,0.172,8.717,4.218,10.432c1.014,0.431,2.068,0.634,3.103,0.634c3.098,0,6.043-1.821,7.329-4.852l15.63-36.847
	l43.267-9.514c3.071-0.676,5.458-3.097,6.087-6.178S511.224,187.978,508.664,186.153z M239.565,127.418
	c6.493-7.471,15.507-11.966,25.38-12.656c0.885-0.063,1.765-0.092,2.644-0.092c8.924,0,17.452,3.178,24.253,9.089
	c4.123,3.583,7.333,7.936,9.504,12.775c0.039,0.095,0.089,0.189,0.133,0.284c1.688,3.85,2.718,8.004,3.021,12.322
	c0.302,4.321-0.139,8.58-1.276,12.631c-0.029,0.097-0.064,0.192-0.089,0.289c-1.476,5.096-4.049,9.854-7.633,13.977
	c-6.493,7.471-15.507,11.966-25.38,12.657c-9.872,0.693-19.426-2.503-26.896-8.997c-7.471-6.493-11.966-15.507-12.656-25.38
	C229.878,144.44,233.072,134.888,239.565,127.418z M215.011,144.761c-0.456,3.497-0.57,7.066-0.318,10.665
	c0.251,3.598,0.861,7.115,1.8,10.513c-2.244,1.012-4.553,1.966-6.872,2.852c2.588-8.628,1.652-18.089-2.794-26.116
	C209.563,143.279,212.322,143.975,215.011,144.761z M169.75,207.893c12.27-4.537,26.206-7.232,32.19-7.232
	c9.838,0,17.843,8.004,17.843,17.843c0,9.839-8.005,17.843-17.843,17.843c-5.984,0-19.92-2.696-32.19-7.232
	c0.7-3.429,1.069-6.978,1.069-10.612C170.819,214.871,170.45,211.323,169.75,207.893z M235.087,212.136
	c-1.957-10.21-8.526-18.796-17.45-23.503c2.545-1.641,5.187-3.232,7.837-4.686c2.15,2.794,4.591,5.395,7.311,7.76
	c2.723,2.367,5.646,4.417,8.716,6.157C239.645,202.78,237.384,207.706,235.087,212.136z M260.571,204.249
	c2.268,0.296,4.566,0.45,6.884,0.45c1.255,0,2.516-0.045,3.779-0.133c3.598-0.251,7.115-0.861,10.514-1.8
	c5.381,11.921,9.042,25.631,9.46,31.599c0.686,9.815-6.739,18.359-16.554,19.046c-9.824,0.693-18.36-6.739-19.046-16.554
	C255.189,230.89,256.904,216.804,260.571,204.249z M344.472,218.596c-3.128,3.599-7.467,5.763-12.22,6.096
	c-4.749,0.333-9.351-1.206-12.95-4.333c-4.526-3.934-13.272-15.111-19.547-26.572c2.794-2.15,5.395-4.591,7.76-7.312
	c2.367-2.722,4.423-5.641,6.162-8.709c12.222,4.617,24.507,11.727,29.033,15.66C350.135,199.878,350.926,211.17,344.472,218.596z
	 M309.233,76.551c3.128-3.599,7.467-5.763,12.22-6.096c4.749-0.338,9.351,1.206,12.95,4.333s5.763,7.468,6.096,12.22
	c0.333,4.753-1.206,9.352-4.333,12.951c-3.933,4.526-15.11,13.272-26.572,19.547c-2.15-2.794-4.591-5.395-7.312-7.76
	c-2.723-2.367-5.642-4.423-8.709-6.164C298.191,93.361,305.299,81.076,309.233,76.551z M260.415,50.041
	c4.756-0.332,9.353,1.205,12.951,4.331c3.598,3.126,5.762,7.467,6.095,12.223c0.417,5.967-1.296,20.051-4.963,32.607
	c-3.496-0.456-7.064-0.569-10.664-0.316c-3.599,0.251-7.115,0.861-10.514,1.8c-5.381-11.922-9.042-25.631-9.46-31.599
	C243.175,59.272,250.6,50.728,260.415,50.041z M190.596,84.857c6.454-7.425,17.746-8.216,25.171-1.762
	c4.525,3.934,13.272,15.11,19.547,26.572c-2.794,2.15-5.395,4.591-7.76,7.312c-2.367,2.723-4.423,5.642-6.163,8.71
	c-12.222-4.618-24.507-11.728-29.032-15.661C184.933,103.574,184.143,92.282,190.596,84.857z M164.696,146.425
	c3.371-3.371,7.851-5.227,12.616-5.227c4.765,0,9.245,1.857,12.616,5.227s5.227,7.851,5.227,12.617
	c0,4.765-1.857,9.245-5.227,12.616c-4.244,4.244-16.021,12.205-27.902,17.665c-3.941-5.947-9.048-11.053-14.996-14.996
	C152.491,162.445,160.452,150.669,164.696,146.425z M117.848,255.561c-20.433,0-37.056-16.623-37.056-37.056
	s16.623-37.056,37.056-37.056s37.056,16.623,37.056,37.056S138.282,255.561,117.848,255.561z M117.848,116.57
	c9.839,0,17.843,8.005,17.843,17.843c0,5.984-2.695,19.92-7.232,32.19c-3.43-0.7-6.979-1.069-10.612-1.069
	c-3.634,0-7.182,0.369-10.612,1.069c-4.537-12.27-7.232-26.206-7.232-32.19C100.005,124.575,108.009,116.57,117.848,116.57z
	 M45.77,146.425c3.371-3.371,7.851-5.227,12.616-5.227s9.245,1.857,12.616,5.227c4.244,4.244,12.205,16.021,17.666,27.902
	c-5.948,3.941-11.054,9.049-14.996,14.996C61.79,183.862,50.014,175.9,45.77,171.658c-3.371-3.371-5.227-7.851-5.227-12.616
	C40.541,154.277,42.398,149.797,45.77,146.425z M15.914,218.504c0-9.839,8.005-17.843,17.843-17.843
	c5.984,0,19.92,2.696,32.19,7.232c-0.7,3.43-1.069,6.979-1.069,10.612c0,3.633,0.369,7.183,1.069,10.612
	c-12.27,4.536-26.206,7.232-32.19,7.232C23.919,236.349,15.914,228.344,15.914,218.504z M71.002,290.584
	c-3.371,3.371-7.851,5.227-12.616,5.227s-9.245-1.857-12.616-5.227c-6.957-6.957-6.957-18.276,0-25.233
	c4.244-4.244,16.021-12.204,27.902-17.665c3.941,5.947,9.049,11.053,14.996,14.996C83.207,274.565,75.246,286.341,71.002,290.584z
	 M100.005,302.595c0-5.984,2.695-19.918,7.232-32.19c3.429,0.7,6.978,1.069,10.612,1.069c3.634,0,7.183-0.369,10.612-1.069
	c4.537,12.27,7.232,26.206,7.232,32.19c0,9.838-8.004,17.843-17.843,17.843S100.005,312.435,100.005,302.595z M189.928,290.584
	c-3.371,3.371-7.851,5.227-12.616,5.227s-9.245-1.857-12.616-5.228c-4.244-4.243-12.205-16.019-17.666-27.902
	c5.947-3.941,11.054-9.048,14.996-14.996c11.882,5.46,23.658,13.421,27.902,17.665c3.371,3.371,5.227,7.851,5.227,12.617
	C195.155,282.733,193.299,287.213,189.928,290.584z M201.182,254.099c-0.615-0.615-1.319-1.266-2.092-1.943
	c1.025,0.069,1.982,0.106,2.851,0.106c5.493,0,10.679-1.327,15.267-3.665c8.024-1.152,15.302-5.109,20.636-11.254
	c0.572-0.658,1.173-1.407,1.796-2.228c0.002,1.028,0.032,1.986,0.092,2.853c0.465,6.629,2.824,12.68,6.51,17.664h-43.627
	C202.154,255.112,201.68,254.597,201.182,254.099z M325.459,462.002H136.989v-10.331h188.469V462.002z M458.507,194.495l-18.36-13.1
	l-5.83-28.737l50.523,36.047L458.507,194.495z"/>
<path d="M145.381,206.87c-1.712-4.046-6.383-5.942-10.429-4.229c-4.048,1.712-5.94,6.382-4.228,10.429
	c0.727,1.718,1.095,3.546,1.095,5.435c0,7.704-6.267,13.97-13.971,13.97s-13.97-6.267-13.97-13.971c0-7.704,6.267-13.97,13.97-13.97
	c4.395,0,7.957-3.563,7.957-7.957s-3.563-7.957-7.957-7.957c-16.479,0-29.884,13.406-29.884,29.884s13.406,29.884,29.884,29.884
	s29.885-13.406,29.885-29.884C147.734,214.474,146.942,210.56,145.381,206.87z"/>
<path d="M267.514,181.612c0.698,0,1.4-0.024,2.107-0.074c16.438-1.15,28.875-15.46,27.725-31.899l0,0
	c-1.15-16.439-15.454-28.875-31.899-27.724c-7.963,0.557-15.232,4.182-20.469,10.208c-5.237,6.025-7.813,13.729-7.256,21.691
	C238.824,169.545,251.976,181.612,267.514,181.612z M256.99,142.562c2.448-2.817,5.846-4.511,9.569-4.772
	c0.331-0.022,0.659-0.034,0.986-0.034c7.263,0,13.412,5.641,13.926,12.995c0.538,7.685-5.276,14.375-12.96,14.913
	c-3.727,0.267-7.325-0.944-10.141-3.392c-2.817-2.448-4.511-5.846-4.772-9.569C253.338,148.98,254.543,145.379,256.99,142.562z"/>
</svg>