<?xml version="1.0" encoding="iso-8859-1"?>
<!-- Uploaded to: SVG Repo, www.svgrepo.com, Generator: SVG Repo Mixer Tools -->
<svg height="800px" width="800px" version="1.1" id="Layer_1" xmlns="http://www.w3.org/2000/svg" xmlns:xlink="http://www.w3.org/1999/xlink" 
	 viewBox="0 0 512.001 512.001" xml:space="preserve">
<path style="fill:#66BF00;" d="M43.159,327.057c0.859-16.369,32.413-51.373,32.413-51.373s27.723,38.11,26.864,54.48
	c-0.859,16.369-14.824,28.943-31.192,28.085C54.875,357.391,42.3,343.426,43.159,327.057z"/>
<path style="fill:#58AB23;" d="M85.801,351.369c-16.369-0.859-28.943-14.824-28.085-31.192c0.527-10.039,12.593-27.076,21.85-38.759
	c-2.4-3.539-3.994-5.733-3.994-5.733s-31.556,35.004-32.413,51.373c-0.859,16.369,11.716,30.334,28.085,31.192
	c8.001,0.42,15.423-2.376,21.026-7.25C90.174,351.349,88.01,351.486,85.801,351.369z"/>
<path style="fill:#66BF00;" d="M181.752,376.626c4.527-15.753-13.886-59.135-13.886-59.135s-38.636,26.986-43.163,42.739
	s4.573,32.195,20.327,36.723C160.783,401.481,177.225,392.381,181.752,376.626z"/>
<path style="fill:#58AB23;" d="M163.961,392.648c-15.754-4.527-24.854-20.968-20.327-36.723c2.566-8.93,16.09-21.466,27.327-30.654
	c-1.809-4.749-3.095-7.78-3.095-7.78s-38.636,26.986-43.163,42.739s4.573,32.195,20.327,36.723
	c8.405,2.416,17.003,0.95,23.886-3.333C167.265,393.438,165.609,393.122,163.961,392.648z"/>
<path style="fill:#B9873C;" d="M100.073,453.17c-31.61,0-58.171,21.619-65.702,50.878h131.402
	C158.244,474.789,131.683,453.17,100.073,453.17z"/>
<polygon style="fill:#E8E6D9;" points="345.312,164.252 387.285,206.225 219.393,182.241 219.393,158.256 "/>
<g>
	<polygon style="fill:#72CCC5;" points="477.227,128.276 381.288,224.214 285.351,116.283 369.297,32.337 	"/>
	<path style="fill:#72CCC5;" d="M216.865,194.691c9.92-9.586,13.135-24.925,7.738-37.646c-5.233-12.334-17.848-20.715-31.252-20.715
		v67.839C202.038,204.168,210.615,200.73,216.865,194.691z"/>
</g>
<path style="fill:#11BBA3;" d="M303.775,97.859l-18.426,18.426l95.939,107.93l40.224-40.224
	C371.071,173.358,328.516,141.34,303.775,97.859z"/>
<polygon style="fill:#DDDAC5;" points="341.785,179.772 432.785,88.771 407.389,66.198 319.211,154.377 "/>
<path style="fill:#D1CDB2;" d="M335.279,138.308l-16.068,16.068l22.573,25.395l20.275-20.275
	C352.457,153.294,343.491,146.193,335.279,138.308z"/>
<path d="M482.509,122.333l-28.474-25.31c6.255-2.52,12.002-6.275,16.823-11.096c19.63-19.631,19.63-51.572,0-71.204
	c-19.632-19.631-51.572-19.632-71.206,0c-6.272,6.272-10.706,14.002-12.985,22.417l-12.089-10.745
	c-3.145-2.796-7.927-2.656-10.903,0.32l-83.946,83.946c-2.976,2.976-3.116,7.757-0.32,10.903l29.321,32.987l-78.297-3.729
	c-7.168-13.55-21.654-22.444-37.082-22.444c-4.391,0-7.95,3.559-7.95,7.95v67.839c0,4.39,3.558,7.95,7.95,7.95
	c10.753,0,21.337-4.269,29.039-11.711c2.714-2.621,5.016-5.563,6.888-8.724l128.817,18.402l17.252,19.409
	c2.996,3.37,8.375,3.528,11.563,0.339l95.939-95.939C486.038,130.707,485.878,125.328,482.509,122.333z M400.845,48.654
	c0.413-8.563,3.982-16.619,10.05-22.688c13.429-13.432,35.286-13.433,48.719,0c13.432,13.432,13.432,35.288,0.001,48.718
	c-5.405,5.404-12.201,8.765-19.717,9.773L400.728,49.64C400.785,49.318,400.829,48.99,400.845,48.654z M369.618,43.259
	l26.189,23.279l-76.256,76.255l-23.279-26.189L369.618,43.259z M201.301,194.959v-49.354c7.016,2.363,13.078,7.697,15.983,14.545
	c4.089,9.636,1.646,21.489-5.943,28.823C208.51,191.71,205.045,193.753,201.301,194.959z M234.708,176.398
	c0.47-3.114,0.593-6.28,0.356-9.436l88.44,4.211l0.675,0.759l17.561,19.756L234.708,176.398z M381.63,212.631l-28.923-32.537
	l43.302-43.302c3.105-3.105,3.105-8.139,0-11.242c-3.106-3.105-8.139-3.105-11.243,0l-42.641,42.641l-11.993-13.491l77.578-77.578
	l13.491,11.993l-11.88,11.88c-3.105,3.105-3.105,8.139,0,11.242c3.106,3.105,8.139,3.105,11.243,0l12.542-12.543l32.538,28.923
	L381.63,212.631z"/>
<path d="M154.362,228.486c-6.301,6.253-12.153,13.05-17.391,20.203c-2.33,3.181-1.927,7.726,0.925,10.448
	c3.425,3.268,9.108,2.76,11.902-1.053c4.748-6.483,10.051-12.643,15.764-18.311c3.115-3.092,3.135-8.127,0.042-11.242
	C162.512,225.412,157.478,225.394,154.362,228.486z"/>
<path d="M114.667,225.454c-5.4,6.957-10.385,14.335-14.817,21.931c-2.043,3.501-1.057,8.111,2.238,10.47
	c3.758,2.69,9.167,1.53,11.494-2.455c4.083-6.996,8.675-13.791,13.646-20.198c2.692-3.468,2.063-8.462-1.406-11.154
	C122.354,221.358,117.358,221.985,114.667,225.454z"/>
<path d="M152.209,188.331c-7.01,5.315-13.734,11.145-19.987,17.329c-3.122,3.088-3.15,8.122-0.064,11.242
	c1.555,1.572,3.603,2.361,5.653,2.361c2.019,0,4.041-0.765,5.589-2.297c5.761-5.697,11.955-11.067,18.414-15.964
	c3.499-2.652,4.184-7.639,1.532-11.138C160.694,186.365,155.709,185.677,152.209,188.331z"/>
<path d="M63.253,257.234c3.913,1.867,8.733,0.156,10.598-3.753c3.509-7.354,7.472-14.598,11.782-21.529
	c2.319-3.729,1.174-8.63-2.553-10.95c-3.728-2.318-8.63-1.176-10.949,2.553c-4.619,7.43-8.87,15.196-12.631,23.081
	C57.609,250.598,59.289,255.344,63.253,257.234z"/>
<path d="M88.565,213.185c3.405,2.682,8.485,2.075,11.164-1.326c5.041-6.4,10.501-12.596,16.229-18.415
	c3.08-3.129,3.04-8.162-0.088-11.242c-3.129-3.079-8.163-3.042-11.242,0.088c-6.137,6.234-11.987,12.872-17.388,19.73
	C84.521,205.471,85.116,210.469,88.565,213.185z"/>
<path d="M129.106,178.716c1.762,0,3.536-0.583,5.011-1.782c6.329-5.145,13.011-9.992,19.863-14.404
	c3.691-2.378,4.756-7.297,2.38-10.988c-2.376-3.691-7.296-4.755-10.988-2.38c-7.342,4.729-14.505,9.921-21.285,15.436
	c-2.474,2.011-3.516,5.404-2.599,8.458C122.484,176.38,125.636,178.716,129.106,178.716z"/>
<path d="M170.061,309.852c-2.302-0.663-4.783-0.25-6.748,1.122c-6.837,4.776-41.202,29.49-46.251,47.061
	c-2.776,9.661-1.625,19.824,3.244,28.617c2.188,3.953,5.014,7.411,8.335,10.279c-6.628,6.307-15.354,12.24-26.847,16.987
	c-2.657-8.688-5.681-16.827-8.664-24.846c-3.154-8.48-6.148-16.535-8.513-24.717c4.883-1.613,9.423-4.237,13.36-7.78
	c7.47-6.726,11.873-15.958,12.399-25.995c0.957-18.258-23.469-52.827-28.375-59.573c-2.923-4.019-9.003-4.338-12.334-0.647
	c-5.585,6.195-33.491,38.021-34.447,56.28c-1.047,19.957,13.736,37.144,33.342,39.354c2.655,9.767,6.12,19.089,9.666,28.622
	c5.778,15.533,11.725,31.532,14.457,50.975c-31.44,3.058-58.015,25.413-66.01,56.475c-1.094,4.253,1.466,8.587,5.719,9.681
	c4.257,1.098,8.587-1.466,9.681-5.718c6.805-26.442,30.657-44.91,58.002-44.91s51.197,18.468,58.002,44.91
	c1.111,4.317,5.706,6.896,9.974,5.636c4.043-1.194,6.472-5.526,5.424-9.599c-7.887-30.643-33.857-52.812-64.741-56.341
	c-0.721-5.722-1.682-11.141-2.832-16.315c16.905-6.649,28.909-15.562,37.433-24.692c15.377,4.2,32.212-2.011,41.113-15.247
	c2.194-3.263,3.862-6.871,4.947-10.649c5.051-17.572-10.95-56.76-14.209-64.437C174.247,312.18,172.366,310.513,170.061,309.852z
	 M51.097,327.473c0.407-7.757,12.612-25.27,23.797-38.815c9.705,14.633,20.011,33.321,19.604,41.091
	c-0.438,8.335-5.747,15.789-13.468,18.957c-1.524-9.381-1.938-19.329-0.613-30.574c0.514-4.361-2.604-8.311-6.964-8.825
	c-4.371-0.515-8.312,2.604-8.825,6.965c-1.411,11.973-1.089,22.652,0.336,32.596C56.447,345.565,50.593,337.08,51.097,327.473z
	 M174.112,374.43c-1.604,5.579-5.283,10.199-10.36,13.009c-2.959,1.639-6.189,2.525-9.473,2.682c1.6-2.707,2.942-5.332,4.064-7.811
	c7.597-16.8,7.089-30.853,7.064-31.443c-0.189-4.387-3.88-7.776-8.284-7.601c-4.386,0.189-7.79,3.898-7.601,8.284
	c0.012,0.266,0.466,16.228-10.653,33.169c-1.842-1.626-3.428-3.553-4.653-5.767c-2.81-5.078-3.476-10.946-1.873-16.525
	c2.144-7.464,17.985-21.773,31.934-32.447C170.431,346.431,176.257,366.966,174.112,374.43z"/>
</svg>